<?xml version="1.0" standalone="no"?>
<!DOCTYPE svg PUBLIC "-//W3C//DTD SVG 20010904//EN"
 "http://www.w3.org/TR/2001/REC-SVG-20010904/DTD/svg10.dtd">
<svg version="1.0" xmlns="http://www.w3.org/2000/svg"
 width="800.000000pt" height="800.000000pt" viewBox="0 0 800.000000 800.000000"
 preserveAspectRatio="xMidYMid meet">
<metadata>
Created by potrace 1.11, written by Peter Selinger 2001-2013
</metadata>
<g transform="translate(0.000000,800.000000) scale(0.100000,-0.100000)"
fill="#000000" stroke="none">
<path d="M5010 6739 c0 -3 -67 -266 -149 -584 -83 -319 -149 -580 -148 -581 2
-2 727 423 734 430 1 1 -199 341 -427 726 -5 8 -10 12 -10 9z"/>
<path d="M3600 4373 l-2346 -3 -399 -400 -400 -400 -5 -64 -5 -64 1733 -783
c963 -435 1748 -784 1765 -785 18 -1 171 -65 341 -143 170 -77 311 -140 312
-138 5 4 -346 930 -354 937 -4 3 -7 10 -7 15 0 18 -78 220 -89 231 -6 6 -334
157 -729 335 l-718 324 2048 3 2048 2 297 297 298 298 0 166 c0 164 0 167 -22
173 -13 3 -338 5 -723 3 -385 -1 -1755 -3 -3045 -4z m-1747 -272 c20 -5 49
-16 62 -25 24 -16 24 -18 9 -41 -15 -23 -18 -23 -43 -11 -74 39 -146 24 -146
-29 0 -28 5 -32 60 -50 137 -46 155 -62 155 -130 0 -75 -51 -115 -145 -115
-55 0 -102 14 -139 43 -19 14 -19 16 -3 40 l17 26 42 -24 c70 -40 158 -30 158
19 0 32 -26 52 -85 67 -97 23 -135 56 -135 117 0 90 83 138 193 113z m1214
-15 c15 -9 37 -22 48 -31 19 -15 19 -15 -2 -37 -21 -21 -25 -20 -73 7 -14 8
-43 15 -65 15 -147 0 -198 -183 -73 -260 44 -27 92 -25 143 5 42 24 43 24 60
5 17 -19 17 -21 -1 -41 -63 -71 -219 -64 -291 13 -53 56 -67 151 -34 223 21
47 80 102 119 111 15 3 32 8 37 10 20 7 105 -5 132 -20z m-965 -153 l3 -168
88 -3 87 -3 0 -29 0 -30 -120 0 -120 0 0 200 0 200 30 0 30 0 2 -167z m536
-15 c44 -101 84 -191 87 -200 6 -15 1 -18 -28 -18 -32 0 -37 4 -54 45 l-18 45
-102 0 -102 0 -20 -45 c-18 -41 -23 -45 -55 -45 l-35 0 18 43 c45 103 144 323
152 339 6 12 21 18 43 18 l33 0 81 -182z m632 85 l1 -98 94 98 c91 95 96 98
134 95 l40 -3 -79 -86 -79 -86 72 -99 c98 -134 95 -124 50 -124 -36 0 -42 4
-103 85 -36 47 -68 85 -72 85 -4 0 -18 -15 -32 -33 -20 -26 -26 -46 -26 -85 0
-51 -1 -52 -30 -52 l-30 0 0 200 0 200 30 0 30 0 0 -97z m732 10 l3 -88 98 -3
97 -3 0 91 0 90 35 0 35 0 0 -200 0 -200 -35 0 -35 0 0 80 0 80 -100 0 -100 0
0 -80 0 -80 -30 0 -30 0 0 200 0 200 30 0 29 0 3 -87z m668 57 l0 -29 -107 -3
-108 -3 -3 -52 -3 -53 95 0 96 0 0 -30 0 -30 -95 0 -95 0 0 -55 0 -55 110 0
110 0 0 -30 0 -30 -140 0 -140 0 0 200 0 200 140 0 140 0 0 -30z m358 -152
c44 -101 84 -191 87 -200 6 -15 1 -18 -28 -18 -32 0 -37 4 -54 45 l-18 45
-102 0 -102 0 -20 -45 c-18 -41 -23 -45 -55 -45 l-35 0 18 43 c45 103 144 323
152 339 6 12 21 18 43 18 l33 0 81 -182z m214 15 l3 -168 88 -3 87 -3 0 -29 0
-30 -120 0 -120 0 0 200 0 200 30 0 30 0 2 -167z m498 137 l0 -30 -60 0 -60 0
0 -170 0 -170 -35 0 -35 0 0 170 0 170 -60 0 -60 0 0 30 0 30 155 0 155 0 0
-30z m132 -57 l3 -88 98 -3 97 -3 0 91 0 90 35 0 35 0 0 -200 0 -200 -35 0
-35 0 0 80 0 80 -100 0 -100 0 0 -80 0 -80 -30 0 -30 0 0 200 0 200 30 0 29 0
3 -87z m-2103 55 c-7 -13 -36 -62 -66 -110 -29 -47 -53 -89 -53 -93 0 -3 21
-5 48 -3 45 3 47 4 50 36 3 26 8 32 27 32 19 0 24 -6 27 -32 2 -25 8 -34 26
-36 17 -3 22 -10 22 -33 0 -24 -4 -29 -25 -29 -23 0 -25 -3 -25 -50 0 -47 -2
-50 -25 -50 -23 0 -25 3 -25 50 l0 50 -90 0 -90 0 0 26 c0 15 31 78 73 145 68
113 74 119 105 119 31 0 32 -1 21 -22z m442 -1595 c-12 -20 -14 -14 -5 12 4 9
9 14 11 11 3 -2 0 -13 -6 -23z m-50 -110 c-12 -20 -14 -14 -5 12 4 9 9 14 11
11 3 -2 0 -13 -6 -23z m-50 -110 c-12 -20 -14 -14 -5 12 4 9 9 14 11 11 3 -2
0 -13 -6 -23z m-50 -110 c-12 -20 -14 -14 -5 12 4 9 9 14 11 11 3 -2 0 -13 -6
-23z m-50 -110 c-12 -20 -14 -14 -5 12 4 9 9 14 11 11 3 -2 0 -13 -6 -23z
m-50 -110 c-12 -20 -14 -14 -5 12 4 9 9 14 11 11 3 -2 0 -13 -6 -23z"/>
<path d="M2486 3936 c-20 -43 -36 -80 -36 -82 0 -2 32 -4 70 -4 39 0 70 4 70
9 0 4 -15 42 -34 82 l-34 74 -36 -79z"/>
<path d="M4876 3936 c-20 -43 -36 -80 -36 -82 0 -2 32 -4 70 -4 39 0 70 4 70
9 0 4 -15 42 -34 82 l-34 74 -36 -79z"/>
</g>
</svg>
